# xmcd
#
# Track frame offsets: 
#        150
#        19655
#        39594
#        61571
#        82317
#        99310
#        118778
#        133846
#        150873
#        170818
#        187279
#        203820
#
# Disc length: 2970 seconds
#
# Revision: 0
# Processed by: cddbd v1.5.1PL2 Copyright (c) Steve Scherf et al.
# Submitted via: ExactAudioCopy v0.95b3
#
DISCID=a10b980c
DTITLE=Moacyr Luz - Samba da Cidade
DYEAR=2003
DGENRE=Samba
TTITLE0=Tudo que eu vivi
TTITLE1=Vila Isabel
TTITLE2=Som de prata
TTITLE3=Zuela de Oxum
TTITLE4=Vinte-e-sete-zero-nove
TTITLE5=Você não parece mais você
TTITLE6=Briga de família
TTITLE7=Faça chuva ou faça sol
TTITLE8=Mitos cariocas: Lan
TTITLE9=Praça Mauá: que mal há?
TTITLE10=Eu só quero beber água
TTITLE11=Cabô, meu pai
EXTD=
EXTT0=
EXTT1=
EXTT2=
EXTT3=
EXTT4=
EXTT5=
EXTT6=
EXTT7=
EXTT8=
EXTT9=
EXTT10=
EXTT11=
PLAYORDER=
